# xmcd
#
# Track frame offsets: 
#        150
#        17154
#        34527
#        51497
#        70216
#        90353
#        109923
#        126182
#        145067
#        161301
#        176124
#        194516
#        214480
#        230041
#        248973
#        267338
#        283897
#        299818
#        316082
#
# Disc length: 4413 seconds
#
# Revision: 2
# Processed by: cddbd v1.5.2PL0 Copyright (c) Steve Scherf et al.
# Submitted via: ExactAudioCopy v1.0b3
#
DISCID=2c113b13
DTITLE=テレサ・テン - テレサ・テン - 全曲集 ふたたび（再来） [DISC.1]
DYEAR=2013
DGENRE=Vocal
TTITLE0=空港
TTITLE1=つぐない
TTITLE2=愛人
TTITLE3=時の流れに身をまかせ
TTITLE4=別れの予感
TTITLE5=アカシアの夢
TTITLE6=あなたと生きる
TTITLE7=ジェルソミーナの歩いた道
TTITLE8=ふるさとはどこですか
TTITLE9=夜のフェリーボート
TTITLE10=東京夜景
TTITLE11=ふたたびの
TTITLE12=スキャンダル
TTITLE13=悲しい自由
TTITLE14=YES、愛につつまれ
TTITLE15=夕凪
TTITLE16=夜來香
TTITLE17=何日君再來
TTITLE18=ふたたび（再来）
EXTD=
EXTT0=
EXTT1=
EXTT2=
EXTT3=
EXTT4=
EXTT5=
EXTT6=
EXTT7=
EXTT8=
EXTT9=
EXTT10=
EXTT11=
EXTT12=
EXTT13=
EXTT14=
EXTT15=
EXTT16=
EXTT17=
EXTT18=
PLAYORDER=
